<?xml version="1.0" encoding="UTF-8"?>
<svg xmlns="http://www.w3.org/2000/svg" version="1.1" xmlns:cc="http://creativecommons.org/ns#" xmlns:dc="http://purl.org/dc/elements/1.1/" xmlns:inkscape="http://www.inkscape.org/namespaces/inkscape" xmlns:rdf="http://www.w3.org/1999/02/22-rdf-syntax-ns#" xmlns:sodipodi="http://sodipodi.sourceforge.net/DTD/sodipodi-0.dtd" xmlns:svg="http://www.w3.org/2000/svg" viewBox="0 0 118.106 50.762">
  <!-- Generator: Adobe Illustrator 29.0.0, SVG Export Plug-In . SVG Version: 2.1.0 Build 186)  -->
  <defs>
    <style>
      .st0 {
        fill-rule: evenodd;
      }
    </style>
  </defs>
  <g id="svg14869" inkscape:version="0.92.0 r15299">
    <sodipodi:namedview id="base" bordercolor="#666666" borderopacity="1.0" fit-margin-bottom="0" fit-margin-left="0" fit-margin-right="0" fit-margin-top="0" inkscape:current-layer="layer1" inkscape:cx="59.053039" inkscape:cy="25.380925" inkscape:document-units="mm" inkscape:pageopacity="0.0" inkscape:pageshadow="2" inkscape:window-height="744" inkscape:window-maximized="1" inkscape:window-width="1280" inkscape:window-x="-4" inkscape:window-y="-4" inkscape:zoom="7.5948673" pagecolor="#ffffff" showgrid="false" units="px"/>
    <g id="layer1" inkscape:groupmode="layer" inkscape:label="Layer 1">
      <g id="g14837">
        <path id="Fill-1" class="st0" d="M52.124,13.062c-2.308,0-4.231.687-5.769,2.062-1.822,1.623-2.733,3.751-2.733,6.381s.911,4.758,2.733,6.381c1.538,1.375,3.473,2.062,5.804,2.062s4.26-.687,5.786-2.062c.911-.817,1.609-1.819,2.094-3.004.426-1.054.639-2.145.639-3.271,0-2.749-.911-4.912-2.733-6.488-1.55-1.351-3.491-2.038-5.822-2.062M52.105,8.954c4.229,0,7.582,1.143,10.058,3.429,2.618,2.392,3.927,5.484,3.927,9.274,0,2.321-.628,4.489-1.884,6.503-2.452,3.932-6.474,5.898-12.066,5.898-4.194,0-7.529-1.143-10.005-3.429-1.327-1.22-2.334-2.683-3.021-4.388-.604-1.504-.906-3.085-.906-4.744,0-2.428.622-4.649,1.866-6.662,2.381-3.849,6.391-5.809,12.031-5.88" inkscape:connector-curvature="0"/>
        <path id="Fill-3" class="st0" d="M82.43,13.374v18.394c0,.367.082.646.248.836.165.189.46.344.885.462v.567h-7.565v-.567c.425-.118.72-.272.885-.462.165-.189.248-.469.248-.836V13.374h-7.533c-.356,0-.628.081-.817.243-.189.162-.344.459-.462.89h-.567v-6.262h.567c.13.43.288.726.471.889.183.163.453.244.809.244h20.346c.367,0,.646-.081.835-.244.189-.163.344-.459.462-.889h.567v6.262h-.567c-.119-.432-.272-.728-.462-.89-.189-.162-.468-.243-.835-.243h-7.515Z" inkscape:connector-curvature="0"/>
        <path id="Fill-5" class="st0" d="M100.652,22.979v6.658h15.607c.355,0,.628-.082.818-.248.189-.165.344-.46.462-.885h.567v6.262h-.567c-.119-.425-.273-.72-.462-.885-.189-.166-.462-.248-.818-.248h-22.039v-.567c.425-.118.72-.272.885-.462.165-.189.248-.468.248-.836V11.242c0-.367-.083-.646-.248-.835-.166-.189-.46-.344-.885-.462v-.567h21.614c.355,0,.628-.084.818-.253.189-.168.344-.462.462-.881h.567v6.262h-.567c-.119-.42-.273-.713-.463-.881-.189-.168-.462-.252-.817-.252h-15.182v5.752h9.855c.355,0,.628-.082.818-.248.189-.165.344-.46.463-.885h.567v6.12h-.567c-.119-.413-.273-.705-.463-.877-.19-.171-.463-.257-.818-.257h-9.855Z" inkscape:connector-curvature="0"/>
        <path id="Fill-8" class="st0" d="M30.25,23.539l4.065,6.107-.556.384c-.399-.37-.727-.555-.984-.555s-.977.341-2.16,1.024c-2.452,1.407-4.516,2.356-6.191,2.846-1.675.49-3.668.735-5.977.735-4.605,0-8.383-1.09-11.333-3.27-1.739-1.268-3.108-2.843-4.106-4.724-1.154-2.152-1.732-4.525-1.732-7.118,0-3.534,1.033-6.605,3.101-9.213,3.107-3.919,7.805-5.878,14.091-5.878,2.309,0,4.291.242,5.945.726,1.654.484,3.721,1.438,6.201,2.861,1.183.669,1.903,1.004,2.16,1.004s.584-.185.984-.555l.556.384-4.065,6.095-.578-.383c.026-.227.043-.418.043-.575,0-.412-.178-.798-.535-1.16-.357-.362-.991-.799-1.904-1.31-2.524-1.419-5.199-2.129-8.023-2.129-3.337,0-5.997.833-7.98,2.499-2.339,1.951-3.508,4.499-3.508,7.645s1.169,5.695,3.508,7.645c1.982,1.666,4.643,2.499,7.98,2.499,2.824,0,5.498-.713,8.023-2.139.913-.513,1.547-.952,1.904-1.315.356-.364.535-.752.535-1.166,0-.157-.015-.342-.043-.556l.578-.406Z" inkscape:connector-curvature="0"/>
        <polygon id="Fill-10" class="st0" points="46.048 6.515 44.438 3.976 52.476 0 60.178 3.976 58.582 6.515 52.476 3.495 46.048 6.515"/>
        <path id="Fill-13" class="st0" d="M6.232,48.524c.645,0,1.098-.081,1.361-.242.262-.161.394-.439.394-.833s-.131-.671-.394-.833c-.263-.161-.716-.242-1.361-.242h-3.044v2.149h3.044ZM5.623,44.548c.382,0,.698-.008.949-.026.251-.019.448-.057.591-.116.143-.06.245-.143.304-.251s.09-.251.09-.43-.03-.322-.09-.43c-.06-.107-.161-.191-.304-.251s-.34-.098-.591-.116c-.251-.019-.567-.026-.949-.026h-2.435v1.647h2.435ZM.421,41.334c-.054-.053-.194-.092-.421-.116v-.215h6.823c.489,0,.937.048,1.343.143.406.096.758.242,1.057.439.298.197.531.454.698.77.167.317.251.696.251,1.137,0,.537-.161.97-.484,1.298-.322.329-.734.546-1.236.654v.034c.609.167,1.107.424,1.495.77.388.346.582.854.582,1.522,0,.358-.069.698-.206,1.021-.138.322-.352.603-.644.842-.293.239-.669.43-1.128.573-.46.143-1.006.215-1.638.215H0v-.215c.227-.023.367-.063.421-.116s.081-.122.081-.206v-8.345c0-.084-.026-.152-.081-.206v.002Z" inkscape:connector-curvature="0"/>
        <path id="Fill-15" class="st0" d="M20.897,44.978c.525,0,.887-.099,1.084-.296.197-.197.296-.427.296-.69s-.099-.492-.296-.689c-.197-.197-.558-.295-1.084-.295h-3.008v1.97h3.008ZM17.969,50.09c.054.054.194.093.421.116v.215h-3.689v-.215c.227-.023.367-.062.421-.116.054-.054.081-.122.081-.206v-8.345c0-.084-.026-.152-.081-.206-.054-.054-.194-.092-.421-.116v-.215h6.554c1.325,0,2.286.242,2.883.725.597.484.895,1.233.895,2.247,0,.824-.242,1.469-.725,1.934-.484.466-1.096.8-1.836,1.003l2.113,2.973c.143.215.316.322.519.322v.215h-3.725v-.215c.263-.011.394-.119.394-.322,0-.023-.048-.107-.143-.251-.096-.144-.215-.316-.358-.519-.143-.203-.302-.421-.475-.654-.173-.233-.34-.457-.501-.672-.161-.215-.302-.406-.421-.573-.119-.167-.197-.28-.233-.34h-1.755v3.008c0,.084.026.152.081.206h0Z" inkscape:connector-curvature="0"/>
        <path id="Fill-17" class="st0" d="M35.814,46.948l-1.737-4.262-1.594,4.262h3.331ZM31.462,50.028c0,.06.019.105.063.135.042.03.128.045.26.045v.215h-3.17v-.215c.131-.023.227-.063.287-.116.06-.053.119-.152.179-.295.023-.06.084-.221.179-.484.095-.262.221-.594.376-.994.155-.4.328-.845.519-1.334.191-.489.382-.988.573-1.495.191-.507.379-1.003.564-1.486.185-.484.349-.916.493-1.298.143-.382.26-.692.349-.931.09-.239.134-.364.134-.376,0-.06-.039-.101-.116-.125-.078-.023-.158-.042-.242-.054v-.215h4.674v.215c-.096.011-.173.03-.233.054-.06.023-.09.084-.09.179,0,.023.056.179.17.466.113.287.26.66.439,1.119.179.46.385.979.618,1.558.233.579.475,1.17.725,1.773.251.603.492,1.191.725,1.764.233.573.445,1.086.636,1.54.096.215.176.358.242.43.065.071.152.107.26.107v.215h-3.528v-.215c.227-.011.34-.083.34-.215,0-.011-.03-.093-.09-.242-.06-.149-.125-.316-.197-.501-.072-.185-.141-.361-.206-.528-.066-.167-.105-.28-.116-.34h-4.244c-.119.322-.215.585-.287.788-.071.203-.128.364-.17.484-.042.119-.072.206-.09.26-.019.054-.026.093-.026.116h0Z" inkscape:connector-curvature="0"/>
        <path id="Fill-19" class="st0" d="M44.749,46.787c-.023.071-.034.197-.034.376,0,.12.11.254.331.403.221.149.507.29.86.421.352.131.755.242,1.209.331.454.089.913.134,1.379.134.895,0,1.552-.104,1.97-.313.418-.209.627-.511.627-.904,0-.215-.182-.367-.546-.457-.364-.09-.821-.161-1.37-.215-.549-.054-1.14-.113-1.773-.179-.633-.065-1.224-.185-1.773-.358-.549-.173-1.006-.424-1.37-.752-.364-.328-.546-.779-.546-1.352,0-.454.104-.865.313-1.236.209-.37.502-.686.877-.949.376-.263.833-.468,1.37-.618.537-.149,1.134-.224,1.791-.224.609,0,1.176.039,1.701.116.525.078.991.164,1.397.26.406.096.746.182,1.021.26.274.078.471.116.591.116s.215-.026.287-.081c.071-.054.137-.116.197-.188l.197.071-1.236,2.489-.215-.107v-.197c0-.107-.116-.218-.349-.331s-.528-.215-.887-.304c-.358-.09-.758-.164-1.2-.224-.442-.06-.872-.09-1.289-.09-.776,0-1.319.09-1.63.269-.311.179-.466.37-.466.573s.107.355.322.457c.215.102.495.176.842.224.346.048.74.087,1.182.116.442.03.895.075,1.361.134.466.06.919.143,1.361.251.442.108.836.266,1.182.475.346.209.627.484.842.823.215.34.322.767.322,1.28,0,.394-.081.782-.242,1.164-.161.382-.436.725-.823,1.03-.388.304-.908.546-1.558.725-.651.179-1.46.269-2.427.269-.752,0-1.4-.034-1.943-.107-.543-.071-1.006-.158-1.388-.26-.382-.101-.683-.194-.904-.277-.221-.083-.385-.125-.492-.125-.072,0-.135.023-.188.072-.054.048-.111.102-.17.161l-.215-.054,1.325-3.187.177.089Z" inkscape:connector-curvature="0"/>
        <path id="Fill-21" class="st0" d="M58.394,46.787c-.023.071-.034.197-.034.376,0,.12.11.254.331.403.22.149.507.29.859.421.352.131.755.242,1.209.331.454.089.914.134,1.379.134.895,0,1.552-.104,1.97-.313.418-.209.627-.511.627-.904,0-.215-.182-.367-.546-.457-.364-.09-.821-.161-1.37-.215-.549-.054-1.14-.113-1.773-.179-.633-.065-1.224-.185-1.773-.358-.549-.173-1.006-.424-1.37-.752-.364-.328-.546-.779-.546-1.352,0-.454.104-.865.313-1.236.209-.37.502-.686.877-.949.376-.263.833-.468,1.37-.618.537-.149,1.134-.224,1.791-.224.609,0,1.176.039,1.701.116.525.078.991.164,1.397.26.406.096.746.182,1.02.26.274.078.472.116.591.116s.215-.026.287-.081.137-.116.197-.188l.197.071-1.236,2.489-.215-.107v-.197c0-.107-.116-.218-.349-.331s-.528-.215-.887-.304c-.358-.09-.758-.164-1.2-.224-.442-.06-.872-.09-1.289-.09-.777,0-1.319.09-1.63.269-.311.179-.466.37-.466.573s.107.355.322.457c.215.102.495.176.842.224.346.048.74.087,1.182.116.442.03.895.075,1.361.134.465.06.919.143,1.361.251.441.108.836.266,1.182.475.346.209.627.484.842.823.215.34.323.767.323,1.28,0,.394-.081.782-.242,1.164-.161.382-.436.725-.824,1.03-.388.304-.908.546-1.558.725-.651.179-1.46.269-2.427.269-.752,0-1.4-.034-1.943-.107-.544-.071-1.006-.158-1.388-.26-.382-.101-.684-.194-.905-.277-.221-.083-.385-.125-.492-.125-.071,0-.135.023-.188.072-.054.048-.111.102-.17.161l-.215-.054,1.325-3.187.178.089Z" inkscape:connector-curvature="0"/>
        <path id="Fill-23" class="st0" d="M78.307,46.984c-.023-.119-.075-.218-.152-.296-.078-.078-.206-.116-.385-.116h-3.331v1.665h5.748c.096,0,.167-.034.215-.098.048-.065.084-.212.108-.439h.215v3.062h-.215c-.023-.155-.06-.251-.108-.287-.048-.034-.119-.054-.215-.054h-8.935v-.215c.226-.023.367-.063.42-.116.054-.054.081-.122.081-.206v-8.345c0-.084-.026-.152-.081-.206-.054-.054-.194-.092-.42-.116v-.215h8.935c.096,0,.167-.034.215-.098.048-.065.084-.2.108-.403h.215v3.116h-.215c-.023-.203-.06-.337-.108-.403-.048-.065-.119-.098-.215-.098h-5.748v1.486h3.331c.179,0,.307-.039.385-.116s.128-.176.152-.295h.215v2.793h-.215Z" inkscape:connector-curvature="0"/>
        <path id="Fill-25" class="st0" d="M91.093,44.978c.525,0,.886-.099,1.083-.296.197-.197.295-.427.295-.69s-.098-.492-.295-.689c-.197-.197-.558-.295-1.083-.295h-3.009v1.97h3.009ZM88.165,50.09c.054.054.194.093.421.116v.215h-3.689v-.215c.226-.023.367-.062.42-.116.054-.054.081-.122.081-.206v-8.345c0-.084-.026-.152-.081-.206-.053-.054-.194-.092-.42-.116v-.215h6.554c1.325,0,2.286.242,2.883.725.597.484.895,1.233.895,2.247,0,.824-.242,1.469-.725,1.934-.484.466-1.095.8-1.836,1.003l2.113,2.973c.143.215.316.322.519.322v.215h-3.725v-.215c.262-.011.394-.119.394-.322,0-.023-.048-.107-.143-.251-.096-.144-.215-.316-.358-.519-.144-.203-.302-.421-.475-.654-.173-.233-.34-.457-.501-.672-.161-.215-.302-.406-.421-.573-.119-.167-.197-.28-.233-.34h-1.755v3.008c0,.084.026.152.081.206h0Z" inkscape:connector-curvature="0"/>
        <path id="Fill-27" class="st0" d="M99.724,50.207c.227-.023.367-.062.42-.116.054-.054.081-.122.081-.206v-8.344c0-.084-.026-.152-.081-.206-.054-.054-.194-.092-.42-.116v-.215h3.689v.215c-.227.023-.367.063-.42.116-.054.054-.081.122-.081.206v8.344c0,.084.026.152.081.206.054.054.194.093.42.116v.215h-3.689v-.215Z" inkscape:connector-curvature="0"/>
        <path id="Fill-29" class="st0" d="M115.249,46.984c-.023-.119-.075-.218-.152-.296-.078-.078-.206-.116-.385-.116h-3.331v1.665h5.748c.096,0,.167-.034.215-.098.048-.065.084-.212.108-.439h.215v3.062h-.215c-.023-.155-.06-.251-.108-.287-.048-.034-.119-.054-.215-.054h-8.935v-.215c.226-.023.367-.063.42-.116.054-.054.081-.122.081-.206v-8.345c0-.084-.026-.152-.081-.206-.054-.054-.194-.092-.42-.116v-.215h8.935c.096,0,.167-.034.215-.098.048-.065.084-.2.108-.403h.215v3.116h-.215c-.023-.203-.06-.337-.108-.403-.048-.065-.119-.098-.215-.098h-5.748v1.486h3.331c.179,0,.307-.039.385-.116s.128-.176.152-.295h.215v2.793h-.215Z" inkscape:connector-curvature="0"/>
      </g>
    </g>
  </g>
</svg>