<?xml version="1.0" encoding="UTF-8"?>
<svg xmlns="http://www.w3.org/2000/svg" version="1.1" xmlns:cc="http://creativecommons.org/ns#" xmlns:dc="http://purl.org/dc/elements/1.1/" xmlns:inkscape="http://www.inkscape.org/namespaces/inkscape" xmlns:rdf="http://www.w3.org/1999/02/22-rdf-syntax-ns#" xmlns:sodipodi="http://sodipodi.sourceforge.net/DTD/sodipodi-0.dtd" xmlns:svg="http://www.w3.org/2000/svg" viewBox="0 0 269.102 67.95">
  <!-- Generator: Adobe Illustrator 29.0.0, SVG Export Plug-In . SVG Version: 2.1.0 Build 186)  -->
  <g id="svg121" inkscape:version="0.92.1 r15371">
    <sodipodi:namedview id="namedview123" bordercolor="#666666" borderopacity="1" fit-margin-bottom="0" fit-margin-left="0" fit-margin-right="0" fit-margin-top="0" gridtolerance="10" guidetolerance="10" inkscape:current-layer="g129" inkscape:cx="8.6821059" inkscape:cy="39.199575" inkscape:pageopacity="0" inkscape:pageshadow="2" inkscape:window-height="1017" inkscape:window-maximized="1" inkscape:window-width="1920" inkscape:window-x="-8" inkscape:window-y="-8" inkscape:zoom="8" objecttolerance="10" pagecolor="#ffffff" showgrid="false"/>
    <g id="g133">
      <g id="g139">
        <path id="path141" d="M19.552,23.685c-.403.761-.947,1.279-1.591,1.489-.771.249-1.623.009-2.279-.644-1.244-1.239-1.499-3.499-.681-6.048.604-1.884,1.923-3.004,2.853-3.004h.011c.796.008,1.227.885,1.448,1.621.092.309.32.543.599.653-.227.576-.428,1.589-.517,3.427-.045.925.009,1.767.157,2.505M4.653,16.772c-.403-3.361-.311-7.064.099-10.157.239-1.82,1.227-3.929,1.804-4.476.129.219.347.716.544,1.776.976,5.279-.364,9.213-2.447,12.857M32.417,18.084c-.287-.284-.672-.916-.989-1.559.428-1.075.513-1.893.139-2.496-.144-.232-.579-.763-1.505-.687-.539.044-.971.376-1.157.888-.212.581-.04,1.433.292,2.291-.259.515-.628,1.187-1.153,2.06l-.143.237c-.089.149-.184.312-.285.483-.893,1.515-2.243,3.805-3.383,4.921-.68.663-1.312.935-1.739.743-.299-.135-.588-.505-.791-1.107.223-.575.392-1.209.503-1.897.299-1.864.465-4.229-.436-4.909-.14-.105-.299-.175-.464-.207.004-.109-.009-.221-.041-.331-.827-2.752-2.639-3.065-3.379-3.072-2.001-.02-3.983,1.797-4.823,4.419-.304.945-.469,1.865-.528,2.745-.064.104-.112.22-.135.348-.468,2.549-1.993,4.084-3.259,4.283-1.268.199-2.155-.916-2.676-1.887-.541-1.007-.963-2.215-1.281-3.543,2.859-4.445,5.2-9.327,3.917-16.264C8.937,2.656,8.442-.048,6.582,0c-2.279.06-3.637,4.741-3.849,6.348-.495,3.743-.597,8.764.276,13.069-.392.593-.795,1.187-1.199,1.784-.545.803-1.108,1.632-1.648,2.468-.304.472-.169,1.103.304,1.407.471.305,1.101.169,1.407-.303.528-.816,1.084-1.636,1.621-2.429.069-.103.139-.204.208-.305.273.813.595,1.577.969,2.275,1.032,1.925,2.529,2.984,4.173,2.984.203,0,.405-.016.612-.048,1.459-.229,2.797-1.263,3.737-2.765.273.557.62,1.061,1.051,1.489,1.208,1.204,2.832,1.628,4.345,1.137.717-.233,1.353-.653,1.889-1.233.327.42.72.739,1.179.945,1.229.553,2.687.136,3.997-1.145,1.332-1.304,2.765-3.735,3.713-5.343.099-.169.193-.328.281-.476l.137-.228c.195-.325.377-.636.548-.933.247.369.476.663.649.835,2.039,2.016,2.4,3.241,2.345,3.915-.043.508-.353.959-.949,1.381-1.151.815-2.244.668-3.248-.437-.377-.416-1.021-.445-1.437-.068-.416.379-.447,1.021-.068,1.439.981,1.081,2.133,1.629,3.317,1.629.872,0,1.761-.299,2.612-.901,1.103-.78,1.709-1.748,1.801-2.876.135-1.629-.828-3.439-2.941-5.529" inkscape:connector-curvature="0"/>
      </g>
      <g id="g143">
        <path id="path145" d="M252.671,62.405c-8.379,0-12.408-2.312-15.245-4.575-.324-.259-.627-.513-.913-.753l3.901-4.7.021.017c.252.212.516.433.8.661,2.112,1.683,4.959,3.241,11.436,3.241,7.723,0,10.323-1.705,10.323-2.483,0-.359,0-.731-1.428-1.187-1.768-.564-4.481-.725-7.107-.881-.637-.037-1.275-.075-1.905-.117l-.472-.037c-.711-.052-1.421-.095-2.115-.136-2.763-.165-5.376-.323-7.467-1.036-4.191-1.429-4.819-4.625-4.819-6.404,0-1.904.708-5.383,5.443-7.288,2.46-.989,5.765-1.469,10.108-1.469,8.161,0,12.555,2.611,14.447,4.167.349.287.672.588.961.892l-4.429,4.207c-.117-.124-.256-.252-.413-.381-.791-.651-3.893-2.777-10.565-2.777-5.823,0-9.441,1.016-9.441,2.651,0,.191.027.292.036.315.584.673,4.291.896,6.504,1.028.72.044,1.456.088,2.207.143l.459.035c.588.04,1.205.077,1.824.113,3,.179,6.104.361,8.604,1.16,4.941,1.577,5.677,5.067,5.677,7.005,0,1.717-.667,4.887-5.128,6.831-2.683,1.167-6.485,1.76-11.303,1.76" inkscape:connector-curvature="0"/>
      </g>
      <path id="path147" d="M13.514,61.908h-6.108v-26.155h6.108v26.155Z" inkscape:connector-curvature="0"/>
      <g id="g149">
        <path id="path151" d="M94.33,62.405c-15.128,0-16.761-8.248-16.761-11.795v-14.856h6.109v14.856c0,1.407,0,5.687,10.652,5.687s10.651-4.28,10.651-5.687v-14.856h6.109v14.856c0,3.547-1.635,11.795-16.76,11.795" inkscape:connector-curvature="0"/>
      </g>
      <g id="g153">
        <path id="path155" d="M144.522,62.073h7.492l-19.949-28.643-19.599,28.643h7.365l3.164-4.608h18.329l3.197,4.608ZM127.188,51.356l4.924-7.171,4.976,7.171h-9.9Z" inkscape:connector-curvature="0"/>
      </g>
      <g id="g157">
        <path id="path159" d="M229.021,62.073h7.491l-19.949-28.643-19.597,28.643h7.365l3.163-4.608h18.329l3.199,4.608ZM211.688,51.356l4.924-7.171,4.973,7.171h-9.897Z" inkscape:connector-curvature="0"/>
      </g>
      <g id="g161">
        <path id="path163" d="M193.877,62.073v-26.319h-6.108v16.539l-27.9-16.62h-4.272v26.4h6.108v-16.873l28.2,16.873h3.972Z" inkscape:connector-curvature="0"/>
      </g>
      <g id="g165">
        <path id="path167" d="M47.427,52.252h17.812v1.221c-.761,1.481-1.881,2.859-3.344,4.095l-.984.832c-2.244,1.657-6.055,3.443-13.425,3.443-12.701,0-20.285-4.869-20.285-13.025,0-12.204,15.484-13.153,20.229-13.153,8.248,0,14.937,2.608,17.525,6.817l5.253-3.117c-3.724-6.144-12.217-9.808-22.779-9.808-16.245,0-26.336,7.381-26.336,19.261,0,9.249,6.933,19.133,26.392,19.133,9.831,0,14.827-2.803,17.753-5.176v4.669h6.109v-21.3h-23.921v6.108Z" inkscape:connector-curvature="0"/>
      </g>
    </g>
  </g>
</svg>